<?xml version="1.0" encoding="utf-8"?>
<svg xmlns="http://www.w3.org/2000/svg" style="margin: auto; background: none; display: block; shape-rendering: auto; animation-play-state: running; animation-delay: 0s;" width="280" height="250" preserveAspectRatio="xMidYMid">
<style type="text/css" style="animation-play-state: running; animation-delay: 0s;">
  text {
    text-anchor: middle; font-size: 80px; opacity: 0;
  }
</style>
<g style="transform-origin: 140px 125px; transform: scale(1); animation-play-state: running; animation-delay: 0s;">
<g transform="translate(140,125)" style="animation-play-state: running; animation-delay: 0s;">
  <g transform="translate(0,0)" style="animation-play-state: running; animation-delay: 0s;"><g class="path" style="opacity: 1; transform-origin: -96.88px -5.95552px; animation: 1s linear -0.528s infinite normal forwards running fade-445eb2d0-27ff-41b2-83b3-adfe041678cf;"><path d="M36.08-53.52L34.96-47.04L34.96-47.04Q33.04-47.52 30.96-47.92L30.96-47.92L30.96-47.92Q29.12-48.32 26.76-48.60L26.76-48.60L26.76-48.60Q24.40-48.88 21.84-48.88L21.84-48.88L21.84-48.88Q15.92-48.88 13.36-47.08L13.36-47.08L13.36-47.08Q10.80-45.28 10.80-41.52L10.80-41.52L10.80-41.52Q10.88-38.56 12.96-36.52L12.96-36.52L12.96-36.52Q15.04-34.48 18.16-32.76L18.16-32.76L18.16-32.76Q21.28-31.04 25-29.40L25-29.40L25-29.40Q28.72-27.76 31.84-25.64L31.84-25.64L31.84-25.64Q34.96-23.52 37.08-20.68L37.08-20.68L37.08-20.68Q39.20-17.84 39.20-13.76L39.20-13.76L39.20-13.76Q39.20-9.04 37.16-6.16L37.16-6.16L37.16-6.16Q35.12-3.28 32-1.68L32-1.68L32-1.68Q28.88-0.08 25.16 0.48L25.16 0.48L25.16 0.48Q21.44 1.04 18.08 1.04L18.08 1.04L18.08 1.04Q14.88 1.04 12.24 0.64L12.24 0.64L12.24 0.64Q9.60 0.24 7.68-0.24L7.68-0.24L7.68-0.24Q5.44-0.80 3.60-1.52L3.60-1.52L5.20-8L5.20-8Q7.04-7.20 9.12-6.64L9.12-6.64L9.12-6.64Q10.96-6.16 13.24-5.76L13.24-5.76L13.24-5.76Q15.52-5.36 18.08-5.36L18.08-5.36L18.08-5.36Q21.20-5.36 23.80-5.76L23.80-5.76L23.80-5.76Q26.40-6.16 28.32-7.04L28.32-7.04L28.32-7.04Q30.24-7.92 31.32-9.36L31.32-9.36L31.32-9.36Q32.40-10.80 32.40-12.88L32.40-12.88L32.40-12.88Q32.32-16 30.36-17.96L30.36-17.96L30.36-17.96Q28.40-19.92 25.16-21.72L25.16-21.72L25.16-21.72Q21.92-23.52 18.20-25.20L18.20-25.20L18.20-25.20Q14.48-26.88 11.36-29.04L11.36-29.04L11.36-29.04Q8.24-31.20 6.12-34.16L6.12-34.16L6.12-34.16Q4-37.12 4-41.52L4-41.52L4-41.52Q4-44.08 4.88-46.56L4.88-46.56L4.88-46.56Q5.76-49.04 7.88-50.96L7.88-50.96L7.88-50.96Q10-52.88 13.40-54.08L13.40-54.08L13.40-54.08Q16.80-55.28 21.84-55.28L21.84-55.28L21.84-55.28Q24.72-55.28 27.32-55L27.32-55L27.32-55Q29.92-54.72 31.84-54.40L31.84-54.40L31.84-54.40Q34.08-54 36.08-53.52L36.08-53.52" fill="#eab145" stroke="none" stroke-width="none" transform="translate(-118.280029296875,21.164480834960933)" style="fill: rgb(234, 177, 69); animation-play-state: running; animation-delay: 0s;"></path></g><g class="path" style="opacity: 1; transform-origin: -52.04px -6.11552px; animation: 1s linear -0.396s infinite normal forwards running fade-445eb2d0-27ff-41b2-83b3-adfe041678cf;"><path d="M49.12 0L49.12-54.56L82.56-54.56L82.56-48.40L55.84-48.40L55.84-30.96L80.64-30.96L80.64-24.96L55.84-24.96L55.84-6.16L83.36-6.16L83.36 0L49.12 0" fill="#eab145" stroke="none" stroke-width="none" transform="translate(-118.280029296875,21.164480834960933)" style="fill: rgb(250, 217, 109); animation-play-state: running; animation-delay: 0s;"></path></g><g class="path" style="opacity: 1; transform-origin: 3.19997px -6.11552px; animation: 1s linear -0.264s infinite normal forwards running fade-445eb2d0-27ff-41b2-83b3-adfe041678cf;"><path d="M92.88 0L95.76-54.56L104.32-54.56L116.64-22.08L116.64-22.08Q117.68-19.28 118.56-16.92L118.56-16.92L118.56-16.92Q119.44-14.56 120.08-12.72L120.08-12.72L120.08-12.72Q120.88-10.64 121.44-8.88L121.44-8.88L121.60-8.88L121.60-8.88Q122.08-10.64 122.80-12.72L122.80-12.72L122.80-12.72Q123.44-14.56 124.24-16.92L124.24-16.92L124.24-16.92Q125.04-19.28 126.16-22.08L126.16-22.08L138.72-54.56L147.28-54.56L150.08 0L143.28 0L141.92-30L141.92-30Q141.76-33.92 141.68-36.64L141.68-36.64L141.68-36.64Q141.60-39.36 141.60-41.12L141.60-41.12L141.60-44.48L141.44-44.48L141.44-44.48Q140.96-43.28 140.24-41.20L140.24-41.20L140.24-41.20Q139.60-39.44 138.60-36.68L138.60-36.68L138.60-36.68Q137.60-33.92 136.16-30L136.16-30L124.88 0L118.08 0L106.72-30L106.72-30Q105.20-33.84 104.24-36.60L104.24-36.60L104.24-36.60Q103.28-39.36 102.64-41.12L102.64-41.12L102.64-41.12Q101.92-43.20 101.52-44.48L101.52-44.48L101.36-44.48L101.36-44.48Q101.44-43.20 101.52-41.12L101.52-41.12L101.52-41.12Q101.60-37.76 101.28-30L101.28-30L99.68 0L92.88 0" fill="#eab145" stroke="none" stroke-width="none" transform="translate(-118.280029296875,21.164480834960933)" style="fill: rgb(149, 151, 149); animation-play-state: running; animation-delay: 0s;"></path></g><g class="path" style="opacity: 1; transform-origin: 61.72px -6.11552px; animation: 1s linear -0.132s infinite normal forwards running fade-445eb2d0-27ff-41b2-83b3-adfe041678cf;"><path d="M162.88 0L162.88-54.56L196.32-54.56L196.32-48.40L169.60-48.40L169.60-30.96L194.40-30.96L194.40-24.96L169.60-24.96L169.60-6.16L197.12-6.16L197.12 0L162.88 0" fill="#eab145" stroke="none" stroke-width="none" transform="translate(-118.280029296875,21.164480834960933)" style="fill: rgb(74, 105, 133); animation-play-state: running; animation-delay: 0s;"></path></g><g class="path" style="opacity: 1; transform-origin: 104.08px -5.95552px; animation: 1s linear 0s infinite normal forwards running fade-445eb2d0-27ff-41b2-83b3-adfe041678cf;"><path d="M237.04-53.52L235.92-47.04L235.92-47.04Q234.00-47.52 231.92-47.92L231.92-47.92L231.92-47.92Q230.08-48.32 227.72-48.60L227.72-48.60L227.72-48.60Q225.36-48.88 222.80-48.88L222.80-48.88L222.80-48.88Q216.88-48.88 214.32-47.08L214.32-47.08L214.32-47.08Q211.76-45.28 211.76-41.52L211.76-41.52L211.76-41.52Q211.84-38.56 213.92-36.52L213.92-36.52L213.92-36.52Q216.00-34.48 219.12-32.76L219.12-32.76L219.12-32.76Q222.24-31.04 225.96-29.40L225.96-29.40L225.96-29.40Q229.68-27.76 232.80-25.64L232.80-25.64L232.80-25.64Q235.92-23.52 238.04-20.68L238.04-20.68L238.04-20.68Q240.16-17.84 240.16-13.76L240.16-13.76L240.16-13.76Q240.16-9.04 238.12-6.16L238.12-6.16L238.12-6.16Q236.08-3.28 232.96-1.68L232.96-1.68L232.96-1.68Q229.84-0.08 226.12 0.48L226.12 0.48L226.12 0.48Q222.40 1.04 219.04 1.04L219.04 1.04L219.04 1.04Q215.84 1.04 213.20 0.64L213.20 0.64L213.20 0.64Q210.56 0.24 208.64-0.24L208.64-0.24L208.64-0.24Q206.40-0.80 204.56-1.52L204.56-1.52L206.16-8L206.16-8Q208.00-7.20 210.08-6.64L210.08-6.64L210.08-6.64Q211.92-6.16 214.20-5.76L214.20-5.76L214.20-5.76Q216.48-5.36 219.04-5.36L219.04-5.36L219.04-5.36Q222.16-5.36 224.76-5.76L224.76-5.76L224.76-5.76Q227.36-6.16 229.28-7.04L229.28-7.04L229.28-7.04Q231.20-7.92 232.28-9.36L232.28-9.36L232.28-9.36Q233.36-10.80 233.36-12.88L233.36-12.88L233.36-12.88Q233.28-16 231.32-17.96L231.32-17.96L231.32-17.96Q229.36-19.92 226.12-21.72L226.12-21.72L226.12-21.72Q222.88-23.52 219.16-25.20L219.16-25.20L219.16-25.20Q215.44-26.88 212.32-29.04L212.32-29.04L212.32-29.04Q209.20-31.20 207.08-34.16L207.08-34.16L207.08-34.16Q204.96-37.12 204.96-41.52L204.96-41.52L204.96-41.52Q204.96-44.08 205.84-46.56L205.84-46.56L205.84-46.56Q206.72-49.04 208.84-50.96L208.84-50.96L208.84-50.96Q210.96-52.88 214.36-54.08L214.36-54.08L214.36-54.08Q217.76-55.28 222.80-55.28L222.80-55.28L222.80-55.28Q225.68-55.28 228.28-55L228.28-55L228.28-55Q230.88-54.72 232.80-54.40L232.80-54.40L232.80-54.40Q235.04-54 237.04-53.52L237.04-53.52" fill="#eab145" stroke="none" stroke-width="none" transform="translate(-118.280029296875,21.164480834960933)" style="fill: rgb(62, 68, 78); animation-play-state: running; animation-delay: 0s;"></path></g></g>
</g>
</g>
<style id="fade-445eb2d0-27ff-41b2-83b3-adfe041678cf" data-anikit="">@keyframes fade-445eb2d0-27ff-41b2-83b3-adfe041678cf
{
  0% {
    animation-timing-function: cubic-bezier(0.2057,0.573,0.3723,0.9184);
    opacity: 1;
  }
  100% {
    opacity: 0;
  }
}</style></svg>